<svg width="15" height="20" viewBox="0 0 15 20" fill="none" xmlns="http://www.w3.org/2000/svg">
<path d="M9.62399 0.206443L9.37322 0H2.0613C0.924256 0 0 0.931318 0 2.07771V17.9225C0 19.0674 0.924256 20 2.0613 20H12.9391C14.0749 20 15 19.0674 15 17.9225V5.70009C14.9998 5.2695 14.9998 4.62429 9.62399 0.206443ZM9.80691 2.74439C11.1091 3.85604 12.3425 4.97234 12.9229 5.59742H9.80691V2.74439ZM12.9391 18.1679H2.0613C1.92713 18.1679 1.81799 18.0581 1.81799 17.9225V2.07771C1.81799 1.94185 1.92713 1.8321 2.0613 1.8321H7.98892V6.5137C7.98892 7.02062 8.39604 7.42975 8.8978 7.42975H13.1818V17.9225C13.1816 18.0581 13.072 18.1679 12.9391 18.1679Z" fill="#737587"/>
</svg>
