<svg width="58" height="58" fill="none" xmlns="http://www.w3.org/2000/svg"><circle cx="29" cy="29" r="29" fill="#3257A4"/><mask id="a" style="mask-type:alpha" maskUnits="userSpaceOnUse" x="0" y="0" width="58" height="58"><circle cx="29" cy="29" r="28" fill="#3257A4" stroke="#3257A4" stroke-width="2"/></mask><g mask="url(#a)"><g filter="url(#filter0_f_3021_2)"><circle cx="39" cy="39" r="19" fill="#497AE2"/><circle cx="39" cy="39" r="18" stroke="#3257A4" stroke-opacity=".5" stroke-width="2"/></g><g filter="url(#filter1_f_3021_2)"><circle cx="10" cy="11" r="19" fill="#497AE2"/><circle cx="10" cy="11" r="18" stroke="#3257A4" stroke-opacity=".5" stroke-width="2"/></g></g><path d="M30.06 14.94a1.5 1.5 0 00-2.12 0l-9.547 9.545a1.5 1.5 0 102.122 2.122L29 18.12l8.485 8.486a1.5 1.5 0 102.122-2.122L30.06 14.94zM30.5 41V16h-3v25h3z" fill="#fff"/><defs><filter id="filter0_f_3021_2" x="0" y="0" width="78" height="78" filterUnits="userSpaceOnUse" color-interpolation-filters="sRGB"><feFlood flood-opacity="0" result="BackgroundImageFix"/><feBlend in="SourceGraphic" in2="BackgroundImageFix" result="shape"/><feGaussianBlur stdDeviation="10" result="effect1_foregroundBlur_3021_2"/></filter><filter id="filter1_f_3021_2" x="-24" y="-23" width="68" height="68" filterUnits="userSpaceOnUse" color-interpolation-filters="sRGB"><feFlood flood-opacity="0" result="BackgroundImageFix"/><feBlend in="SourceGraphic" in2="BackgroundImageFix" result="shape"/><feGaussianBlur stdDeviation="7.5" result="effect1_foregroundBlur_3021_2"/></filter></defs></svg>