<svg width="150" height="33" fill="none" xmlns="http://www.w3.org/2000/svg"><path d="M74.02.006l-6.134 6.18H49.342v4.821h20.651l-5.618 5.619H49.342v4.822h23.693l-6.18 6.18H41.01V0h33.016l-.005.006zm38.611 21.31l-6.277 6.277H83.36l-6.276-6.277V6.283L83.36.006h22.994l6.277 6.277v15.033zm-8.333.143V6.145h-18.87V21.46h18.87zM150 27.633h-8.333V16.63h-16.482v11.002l-8.333 4.73V.006h8.333v11.007h16.482V.006H150v27.627zM18.8 8.865c-.31.556-.608 1.094-.905 1.633-1.02 1.85-2.033 3.7-3.053 5.555l-2.898 5.286c-1.094 1.993-2.187 3.98-3.276 5.979-.126.229-.269.326-.538.326-2.589-.005-5.177 0-7.766 0-.418 0-.44-.04-.246-.39 1.815-3.338 3.637-6.677 5.452-10.016 1.466-2.697 2.938-5.394 4.404-8.092 1.575-2.886 3.15-5.773 4.72-8.66.028-.05.057-.097.08-.148.097-.23.263-.315.515-.31.653.012 1.306 0 1.958 0 1.673 0 3.345.012 5.017-.005.344 0 .533.114.693.418.796 1.489 1.615 2.967 2.423 4.45l2.37 4.364 4.52 8.264c1.059 1.941 2.113 3.889 3.178 5.836.681 1.254 1.369 2.503 2.056 3.757.28.51.27.532-.31.532h-7.695c-.207.012-.344-.074-.441-.257-.206-.396-.43-.78-.642-1.174-1.294-2.349-2.583-4.702-3.877-7.05-1.455-2.64-2.904-5.28-4.358-7.92-.384-.7-.773-1.398-1.163-2.097-.051-.086-.086-.189-.223-.263l.006-.018z" fill="#000"/></svg>