<svg width="58" height="58" fill="none" xmlns="http://www.w3.org/2000/svg"><circle cx="29" cy="29" r="29" fill="#3257A4"/><mask id="a" style="mask-type:alpha" maskUnits="userSpaceOnUse" x="0" y="0" width="58" height="58"><circle cx="29" cy="29" r="28" fill="#3257A4" stroke="#3257A4" stroke-width="2"/></mask><g mask="url(#a)"><g filter="url(#filter0_f_472_565)"><circle cx="39" cy="39" r="19" fill="#497AE2"/><circle cx="39" cy="39" r="18" stroke="#3257A4" stroke-opacity=".5" stroke-width="2"/></g><g filter="url(#filter1_f_472_565)"><circle cx="10" cy="11" r="19" fill="#497AE2"/><circle cx="10" cy="11" r="18" stroke="#3257A4" stroke-opacity=".5" stroke-width="2"/></g></g><g clip-path="url(#clip0_472_565)" fill="#fff"><path d="M34.725 32.552c-.719-.71-1.616-.71-2.33 0-.545.54-1.09 1.08-1.626 1.63-.146.151-.27.183-.448.082-.353-.192-.728-.348-1.067-.558-1.58-.994-2.903-2.27-4.075-3.708-.581-.714-1.099-1.479-1.46-2.34-.074-.173-.06-.288.082-.43.545-.526 1.076-1.066 1.612-1.606.746-.75.746-1.63-.005-2.385-.426-.43-.852-.852-1.277-1.282-.44-.44-.875-.883-1.32-1.318-.718-.7-1.615-.7-2.33.004-.55.54-1.076 1.094-1.634 1.625-.518.49-.779 1.09-.834 1.79-.087 1.14.193 2.216.587 3.264.805 2.17 2.032 4.097 3.52 5.864 2.01 2.39 4.41 4.28 7.216 5.644 1.264.614 2.573 1.085 3.997 1.163.98.055 1.832-.192 2.514-.957.467-.522.994-.998 1.488-1.497.733-.741.737-1.639.01-2.37-.87-.875-1.745-1.745-2.62-2.615zm-.875-3.648l1.69-.288a7.55 7.55 0 00-2.11-4.075 7.511 7.511 0 00-4.304-2.146l-.238 1.698a5.828 5.828 0 013.333 1.662c.86.86 1.424 1.95 1.63 3.149zm2.642-7.343A12.458 12.458 0 0029.35 18l-.238 1.698a10.803 10.803 0 016.172 3.076 10.791 10.791 0 013.026 5.837l1.69-.288a12.545 12.545 0 00-3.508-6.762z"/></g><defs><filter id="filter0_f_472_565" x="0" y="0" width="78" height="78" filterUnits="userSpaceOnUse" color-interpolation-filters="sRGB"><feFlood flood-opacity="0" result="BackgroundImageFix"/><feBlend in="SourceGraphic" in2="BackgroundImageFix" result="shape"/><feGaussianBlur stdDeviation="10" result="effect1_foregroundBlur_472_565"/></filter><filter id="filter1_f_472_565" x="-24" y="-23" width="68" height="68" filterUnits="userSpaceOnUse" color-interpolation-filters="sRGB"><feFlood flood-opacity="0" result="BackgroundImageFix"/><feBlend in="SourceGraphic" in2="BackgroundImageFix" result="shape"/><feGaussianBlur stdDeviation="7.5" result="effect1_foregroundBlur_472_565"/></filter><clipPath id="clip0_472_565"><path fill="#fff" transform="translate(18 18)" d="M0 0h22v22H0z"/></clipPath></defs></svg>