<svg width="10" height="10" fill="none" xmlns="http://www.w3.org/2000/svg"><g clip-path="url(#clip0_1377_1491)" fill="#3257A4"><path d="M7.603 6.615c-.327-.323-.735-.323-1.06 0-.247.245-.495.49-.739.74-.066.07-.122.084-.204.038-.16-.088-.33-.158-.484-.254-.718-.452-1.32-1.032-1.853-1.685A4.387 4.387 0 012.6 4.39c-.033-.079-.027-.13.038-.195.248-.24.489-.485.732-.73.34-.342.34-.741-.002-1.085l-.58-.582c-.2-.2-.398-.402-.6-.6-.326-.318-.734-.318-1.059.003-.25.245-.49.497-.743.738a1.206 1.206 0 00-.379.814c-.04.518.088 1.007.267 1.483.366.987.924 1.863 1.6 2.666a9.903 9.903 0 003.28 2.565c.574.28 1.17.493 1.817.529.445.025.832-.088 1.142-.435.213-.237.452-.454.677-.68.333-.337.335-.745.004-1.078-.395-.398-.793-.793-1.19-1.188zm-.398-1.659l.768-.13a3.431 3.431 0 00-.96-1.853 3.414 3.414 0 00-1.956-.975l-.108.771a2.653 2.653 0 011.515.756c.391.39.647.886.741 1.431zm1.201-3.337A5.663 5.663 0 005.159 0l-.108.772A4.91 4.91 0 017.856 2.17a4.905 4.905 0 011.376 2.653L10 4.692a5.702 5.702 0 00-1.594-3.073z"/></g><defs><clipPath id="clip0_1377_1491"><path fill="#fff" d="M0 0h10v10H0z"/></clipPath></defs></svg>